<?xml version="1.0" standalone="no"?>
<!DOCTYPE svg PUBLIC "-//W3C//DTD SVG 20010904//EN"
 "http://www.w3.org/TR/2001/REC-SVG-20010904/DTD/svg10.dtd">
<svg version="1.0" xmlns="http://www.w3.org/2000/svg"
 width="460.000000pt" height="460.000000pt" viewBox="0 0 460.000000 460.000000"
 preserveAspectRatio="xMidYMid meet">
<metadata>
Created by potrace 1.14, written by Peter Selinger 2001-2017
</metadata>
<g transform="translate(0.000000,460.000000) scale(0.100000,-0.100000)"
fill="#000000" stroke="none">
<path d="M3107 4383 c-4 -3 -7 -42 -7 -85 l0 -78 165 0 165 0 0 85 0 85 -158
0 c-87 0 -162 -3 -165 -7z"/>
<path d="M2793 4224 c-9 -4 -13 -30 -13 -80 l0 -74 -80 0 -80 0 0 -80 0 -80
-154 0 c-176 0 -166 6 -166 -96 l0 -63 -157 -3 -158 -3 -3 -83 -3 -82 163 2
163 3 3 78 3 77 154 0 154 0 3 83 3 82 83 3 82 3 0 79 0 80 155 0 156 0 -3 78
-3 77 -145 2 c-80 1 -151 -1 -157 -3z"/>
<path d="M3435 4218 c-2 -7 -6 -44 -7 -83 l-3 -70 -77 -3 -78 -3 0 -69 0 -70
78 -2 c56 -1 34 -4 -80 -11 l-158 -9 0 -78 0 -78 -40 -7 c-22 -4 -58 -4 -80 0
l-40 7 0 -81 0 -81 -155 0 c-117 0 -155 -3 -156 -12 -1 -7 -1 -32 1 -56 1 -24
-4 -56 -10 -73 l-12 -29 -154 3 -154 2 0 -72 0 -72 82 -3 83 -3 -4 -77 -3 -78
174 -1 c95 0 167 -3 161 -6 -7 -2 -13 -9 -13 -14 0 -6 3 -8 8 -6 4 3 6 -28 4
-69 l-4 -74 -249 0 -249 0 0 80 0 80 -240 0 -240 0 0 78 0 77 -315 0 -315 0 0
-67 0 -68 243 -3 242 -2 -247 -3 -248 -2 0 80 0 80 -80 0 -80 0 0 80 0 80 480
0 481 0 -3 78 -3 77 -475 0 -475 0 -3 -77 -3 -78 -79 0 -80 0 0 -80 0 -80 80
0 80 0 0 -85 0 -85 80 0 80 0 0 -80 0 -80 239 0 239 0 4 -76 c2 -42 1 -78 -1
-80 -2 -2 -40 -4 -83 -4 l-78 0 0 -80 0 -80 -80 0 -80 0 0 -80 0 -80 -80 0
-80 0 0 -80 0 -80 -80 0 -80 0 0 -240 0 -240 -80 0 -80 0 0 -160 0 -160 80 0
80 0 0 -480 0 -480 -80 0 -81 0 3 -82 3 -83 78 -3 77 -3 0 -74 0 -75 800 0
800 0 0 74 c0 41 4 76 10 78 5 2 77 2 159 0 l150 -3 3 -72 3 -72 243 -3 242
-2 0 80 0 80 -240 0 -240 0 0 75 0 74 78 3 77 3 3 83 3 83 77 -3 77 -3 3 -83
3 -82 79 0 80 0 0 -75 c0 -86 3 -89 101 -83 l54 3 3 83 3 82 -81 0 -80 0 0 80
0 80 -80 0 -80 0 0 240 0 240 80 0 80 0 0 320 0 320 -80 0 -80 0 0 80 0 80 80
0 80 0 0 80 0 80 80 0 80 0 0 80 0 80 80 0 80 0 0 80 0 80 -43 0 c-116 0 -256
-13 -250 -24 4 -6 -1 -4 -12 4 -17 14 -11 15 63 18 l82 3 0 79 0 80 -80 0 -80
0 0 80 0 80 -80 0 -80 0 0 80 0 80 -85 0 -85 0 0 -80 0 -79 73 -4 72 -3 -80
-1 -80 0 9 163 9 164 83 0 84 0 0 240 0 240 64 0 c102 0 96 -11 96 171 l0 159
80 0 81 0 -3 158 -3 157 -73 3 c-52 2 -74 -1 -77 -10z m-335 -868 l0 -240 -82
2 -83 2 78 3 77 4 0 234 c0 129 2 235 5 235 3 0 5 -108 5 -240z m-1280 -730
l0 -160 -75 0 -75 0 0 160 0 160 75 0 75 0 0 -160z m480 -160 l0 -160 -75 0
-75 0 0 160 0 160 75 0 75 0 0 -160z m1083 153 c-24 -2 -62 -2 -85 0 -24 2 -5
4 42 4 47 0 66 -2 43 -4z m-353 -143 l70 0 0 -85 0 -85 -75 0 -75 0 2 153 c1
83 3 122 5 85 l4 -68 69 0z m-1530 -90 l0 -80 -80 0 -80 0 0 -80 0 -80 160 0
160 0 0 -80 0 -80 245 0 245 0 0 80 0 80 478 2 477 3 3 78 3 77 79 0 79 0 4
78 c1 42 1 -24 -1 -148 -2 -124 -5 -231 -8 -237 -2 -9 -28 -13 -84 -13 l-80 0
0 -80 0 -80 85 0 85 0 0 -320 0 -320 -85 0 -85 0 0 -240 0 -240 -80 0 -80 0 0
-80 0 -80 -160 0 -160 0 0 80 0 80 -80 0 -80 0 0 -85 0 -85 80 0 80 0 0 -75 0
-75 -800 0 -800 0 0 75 0 75 80 0 80 0 0 405 0 405 64 0 c102 0 96 11 96 -171
l0 -159 80 0 80 0 0 -75 0 -75 80 0 80 0 0 -78 c0 -43 2 -81 4 -83 2 -2 38 -3
80 -1 l76 4 0 79 0 79 -75 0 -75 0 0 80 0 80 -80 0 -80 0 0 160 0 160 -85 0
-85 0 0 80 0 80 85 0 85 0 0 160 0 160 -85 0 -84 0 -3 -157 -3 -158 -157 -3
-158 -3 0 161 0 160 160 0 160 0 0 80 0 80 -80 0 -80 0 0 160 0 160 80 0 80 0
0 80 0 80 80 0 80 0 0 -80z"/>
<path d="M2300 1900 l0 -80 -160 0 -160 0 0 -80 0 -80 -80 0 -80 0 0 -80 0
-80 160 0 160 0 0 -160 0 -160 -160 0 -160 0 0 -85 0 -85 240 0 240 0 0 -153
c0 -85 2 -156 4 -158 2 -2 38 -3 80 -1 l76 4 0 159 0 159 -75 0 -75 0 0 400 0
400 240 0 240 0 0 80 0 80 -245 0 -245 0 0 -80z"/>
<path d="M1820 615 l0 -85 163 2 162 3 3 83 3 82 -166 0 -165 0 0 -85z"/>
</g>
</svg>
